<svg width="22" height="18" viewBox="0 0 22 18" fill="none" xmlns="http://www.w3.org/2000/svg">
<path d="M9.73017 2.07319C10.1448 2.02485 10.5684 2 10.9999 2C15.6639 2 19.3998 4.90264 20.9999 9C20.6053 10.0104 20.0809 10.9482 19.4446 11.7877M5.51956 3.51944C3.47949 4.76406 1.90105 6.69259 0.999939 9C2.60008 13.0974 6.33597 16 10.9999 16C13.0375 16 14.8979 15.446 16.4805 14.4804M8.87871 6.87859C8.33576 7.42149 7.99994 8.17153 7.99994 9C7.99994 10.6569 9.34308 12 10.9999 12C11.8284 12 12.5785 11.6642 13.1214 11.1212" stroke="#808185" stroke-width="1.5" stroke-linecap="round" stroke-linejoin="round"/>
<path d="M3 1L19 17" stroke="#808185" stroke-width="1.5" stroke-linecap="round"/>
</svg>
